<svg xmlns="http://www.w3.org/2000/svg" xmlns:xlink="http://www.w3.org/1999/xlink"><defs>
<symbol id="icon-facebook" viewBox="0 0 16 32">
<title>icon-facebook</title>
<path d="M14.879 0.245c0 1.817 0 5.072 0 5.072s-3.738-0.373-4.674 1.060c-0.512 0.783-0.208 3.077-0.254 4.724 1.632 0 3.327 0 4.959 0-0.418 1.925-0.719 3.23-1.028 4.896-1.412 0-3.958 0-3.958 0v15.759c0 0-4.673 0-6.87 0 0.001-4.858-0.001-10.526 0-15.697-1.067 0-1.856 0-2.923 0 0-1.817 0-3.14 0-4.958 1.035 0 1.855 0 2.891 0 0.148-3.626 0.203-7.217 2.005-9.046 2.023-2.057 3.954-1.809 9.852-1.809z"/>
</symbol>
<symbol id="icon-instagram" viewBox="0 0 32 32">
<title>icon-instagram</title>
<path d="M27.938 31.754h-23.631c-2.175 0-3.938-1.764-3.938-3.94v-23.63c0-2.176 1.764-3.94 3.938-3.94h23.631c2.175 0 3.938 1.764 3.938 3.94v23.63c0 2.176-1.764 3.94-3.938 3.94zM16.123 9.894c-2.457 0-4.567 1.455-5.536 3.545h-0.006c-0.010 0.022-0.017 0.046-0.027 0.068-0.058 0.129-0.108 0.262-0.158 0.395-0.023 0.065-0.049 0.128-0.070 0.192-0.046 0.138-0.082 0.277-0.117 0.418-0.017 0.065-0.037 0.13-0.052 0.197-0.032 0.149-0.054 0.3-0.075 0.453-0.009 0.062-0.021 0.122-0.028 0.185-0.022 0.214-0.036 0.432-0.036 0.654 0 3.371 2.734 6.103 6.105 6.103s6.105-2.732 6.105-6.103c0-0.222-0.014-0.439-0.036-0.654-0.007-0.063-0.020-0.123-0.028-0.185-0.021-0.153-0.043-0.304-0.075-0.453-0.015-0.066-0.034-0.132-0.052-0.197-0.034-0.142-0.071-0.281-0.117-0.418-0.021-0.064-0.047-0.127-0.070-0.192-0.049-0.133-0.1-0.266-0.158-0.395-0.010-0.022-0.017-0.046-0.027-0.068h-0.006c-0.969-2.090-3.079-3.545-5.536-3.545zM28.332 5.365c0-0.87-0.705-1.574-1.575-1.574h-3.151c-0.87 0-1.575 0.704-1.575 1.574v3.152c0 0.87 0.705 1.575 1.575 1.575h3.151c0.87 0 1.575-0.705 1.575-1.575v-3.152zM28.332 13.439h-2.905c0.224 0.816 0.345 1.675 0.345 2.561 0 5.329-4.32 9.648-9.649 9.648s-9.649-4.319-9.649-9.648c0-0.886 0.121-1.745 0.345-2.561h-2.905v13.194c0 0.871 0.705 1.577 1.575 1.577h21.268c0.87 0 1.575-0.705 1.575-1.577v-13.194z"/>
</symbol>
<symbol id="icon-pinterest" viewBox="0 0 26 32">
<title>icon-pinterest</title>
<path d="M11.14 20.743c-0.257 1.025-0.517 2.1-0.785 3.151-0.265 1.036-0.498 2.087-0.884 3.040-0.639 1.577-1.45 3.1-2.514 4.334-0.708 0.821-0.558 0.494-0.77 0.449-0.162-0.034-0.176-0.193-0.208-0.425-0.174-1.253-0.055-2.702 0.009-4.11 0.074-1.605 0.411-2.939 0.725-4.272 0.596-2.54 1.164-5.030 1.766-7.586 0.039-0.17 0.148-0.45 0.111-0.548-0.273-0.71-0.45-1.348-0.528-2.094-0.090-0.855-0.021-1.654 0.171-2.391 0.341-1.302 1.124-2.455 2.331-2.878 0.768-0.266 1.618-0.145 2.135 0.162 0.532 0.319 0.897 0.821 1.067 1.534 0.182 0.757 0.048 1.663-0.098 2.327-0.329 1.5-0.761 2.626-1.153 4.074-0.194 0.718-0.415 1.455-0.233 2.23 0.167 0.711 0.538 1.201 1.042 1.569 0.524 0.382 1.145 0.59 2 0.56 1.511-0.053 2.561-1.019 3.263-1.93 1.124-1.458 1.803-3.426 2.062-5.767 0.082-0.756 0.144-1.623 0.086-2.479-0.108-1.58-0.602-2.852-1.387-3.836-0.746-0.939-1.804-1.685-3.092-2.106-1.276-0.416-3.042-0.555-4.612-0.287-2.853 0.489-4.864 2.11-6.049 4.348-0.62 1.172-1.030 2.519-1.030 4.197 0 1.294 0.319 2.295 0.834 3.077 0.164 0.247 0.404 0.452 0.564 0.735 0.228 0.401-0.034 0.998-0.146 1.433-0.135 0.523-0.15 1.246-0.761 1.258-0.254 0.005-0.571-0.18-0.785-0.299-1.606-0.887-2.581-2.502-2.981-4.596-0.244-1.273-0.242-2.756 0-3.985 0.234-1.19 0.67-2.287 1.153-3.177 1.002-1.85 2.47-3.329 4.257-4.385 1.374-0.812 2.923-1.382 4.809-1.657 0.625-0.091 1.273-0.129 1.975-0.162 2.053-0.096 3.919 0.369 5.324 0.997 1.483 0.663 2.667 1.546 3.668 2.641 1.031 1.126 1.782 2.436 2.257 4.073 0.249 0.852 0.49 1.762 0.49 2.815 0 1.056-0.223 1.985-0.379 2.914-0.583 3.481-2.239 6.327-4.724 7.948-0.602 0.391-1.33 0.754-2.159 0.996-0.821 0.239-1.758 0.418-2.761 0.348-0.974-0.066-1.771-0.331-2.441-0.71-0.665-0.375-1.223-0.836-1.62-1.531z"/>
</symbol>
<symbol id="icon-twitter" viewBox="0 0 32 32">
<title>icon-twitter</title>
<path d="M21.554 3.201c2.503-0.044 3.836 0.868 5.109 2.027 1.081-0.092 2.485-0.695 3.312-1.116 0.267-0.145 0.535-0.293 0.804-0.439-0.473 1.276-1.113 2.276-2.097 3.035-0.219 0.167-0.436 0.395-0.71 0.502 0 0.005 0 0.011 0 0.016 1.403-0.014 2.56-0.647 3.659-0.991 0 0.005 0 0.011 0 0.016-0.577 0.917-1.359 1.849-2.192 2.516-0.336 0.267-0.673 0.534-1.009 0.801 0.018 1.486-0.022 2.903-0.299 4.151-1.615 7.255-5.893 12.181-12.663 14.292-2.432 0.757-6.361 1.068-9.147 0.377-1.381-0.342-2.629-0.73-3.799-1.242-0.651-0.284-1.254-0.592-1.83-0.944-0.19-0.114-0.378-0.23-0.567-0.345 0.628 0.018 1.364 0.192 2.065 0.078 0.636-0.102 1.259-0.075 1.846-0.203 1.462-0.321 2.761-0.746 3.878-1.401 0.543-0.318 1.366-0.689 1.751-1.147-0.726 0.012-1.385-0.156-1.924-0.346-2.091-0.738-3.308-2.096-4.101-4.135 0.634 0.070 2.459 0.235 2.886-0.126-0.798-0.044-1.564-0.506-2.113-0.849-1.682-1.052-3.054-2.817-3.044-5.534 0.222 0.105 0.442 0.209 0.662 0.314 0.423 0.178 0.853 0.273 1.356 0.378 0.213 0.044 0.639 0.169 0.884 0.078-0.011 0-0.021 0-0.032 0-0.325-0.378-0.855-0.63-1.183-1.038-1.079-1.34-2.090-3.404-1.451-5.863 0.162-0.624 0.42-1.174 0.694-1.682 0.011 0.005 0.021 0.010 0.032 0.015 0.126 0.263 0.406 0.457 0.583 0.677 0.551 0.683 1.231 1.297 1.924 1.839 2.361 1.846 4.486 2.981 7.9 3.82 0.866 0.214 1.867 0.377 2.902 0.378-0.29-0.846-0.197-2.215 0.031-3.034 0.576-2.060 1.825-3.543 3.659-4.34 0.438-0.19 0.924-0.329 1.435-0.441 0.263-0.031 0.526-0.063 0.789-0.094z"/>
</symbol>
</defs><symbol id="icon-alarm">
<path fill-rule="evenodd" fill="rgb(149, 225, 211)" d="M30.740,9.503 C29.156,5.807 26.193,2.843 22.497,1.260 C23.497,0.473 24.755,-0.000 26.126,-0.000 C29.370,-0.000 32.000,2.630 32.000,5.874 C32.000,7.245 31.527,8.503 30.740,9.503 ZM30.500,16.000 C30.500,19.852 28.988,23.343 26.537,25.940 L28.566,27.968 C28.834,28.237 29.000,28.607 29.000,29.017 C29.000,29.836 28.336,30.500 27.517,30.500 C27.107,30.500 26.736,30.334 26.468,30.065 L24.290,27.887 C21.939,29.529 19.085,30.500 16.000,30.500 C12.921,30.500 10.072,29.534 7.724,27.897 L5.561,30.060 C5.289,30.332 4.914,30.500 4.500,30.500 C3.672,30.500 3.000,29.828 3.000,28.999 C3.000,28.586 3.168,28.210 3.439,27.939 L5.451,25.927 C3.008,23.332 1.500,19.845 1.500,16.000 C1.500,7.992 7.992,1.500 16.000,1.500 C24.008,1.500 30.500,7.992 30.500,16.000 ZM16.000,4.500 C9.649,4.500 4.500,9.648 4.500,16.000 C4.500,22.351 9.649,27.500 16.000,27.500 C22.351,27.500 27.500,22.351 27.500,16.000 C27.500,9.648 22.351,4.500 16.000,4.500 ZM22.000,17.500 L16.000,17.500 C15.172,17.500 14.500,16.828 14.500,16.000 L14.500,8.000 C14.500,7.172 15.172,6.500 16.000,6.500 C16.828,6.500 17.500,7.172 17.500,8.000 L17.500,14.499 L22.000,14.499 C22.828,14.499 23.500,15.171 23.500,16.000 C23.500,16.828 22.828,17.500 22.000,17.500 ZM1.287,9.705 C0.483,8.685 -0.000,7.400 -0.000,6.000 C-0.000,2.686 2.686,-0.000 6.000,-0.000 C7.400,-0.000 8.685,0.483 9.706,1.287 C5.931,2.904 2.904,5.931 1.287,9.705 Z"/>
</symbol><symbol id="icon-book">
<path fill-rule="evenodd" fill="rgb(149, 225, 211)" d="M31.065,25.889 L16.594,31.877 C16.412,31.956 16.211,32.000 16.000,32.000 C15.789,32.000 15.588,31.956 15.406,31.877 L0.935,25.889 C0.387,25.666 -0.000,25.128 -0.000,24.500 L-0.000,1.500 C-0.000,0.671 0.672,0.000 1.500,0.000 C1.703,0.000 1.897,0.041 2.073,0.114 L2.074,0.114 L2.076,0.115 C2.080,0.116 2.085,0.119 2.089,0.120 L16.000,5.876 L29.911,0.120 C29.915,0.119 29.920,0.116 29.924,0.115 L29.927,0.114 L29.927,0.114 C30.103,0.041 30.297,0.000 30.500,0.000 C31.328,0.000 32.000,0.671 32.000,1.500 L32.000,24.500 C32.000,25.128 31.613,25.666 31.065,25.889 ZM14.500,8.503 L3.000,3.744 L3.000,23.497 L14.500,28.256 L14.500,8.503 ZM29.000,3.744 L17.500,8.503 L17.500,28.256 L29.000,23.497 L29.000,3.744 ZM19.879,10.634 L25.379,8.134 L25.379,8.134 C25.568,8.048 25.778,8.000 26.000,8.000 C26.828,8.000 27.500,8.671 27.500,9.500 C27.500,10.107 27.139,10.629 26.621,10.865 L26.621,10.865 L21.121,13.365 L21.121,13.365 C20.931,13.452 20.721,13.500 20.500,13.500 C19.672,13.500 19.000,12.828 19.000,12.000 C19.000,11.393 19.361,10.870 19.879,10.634 ZM19.879,16.134 L19.879,16.134 L25.379,13.634 L25.379,13.634 C25.568,13.548 25.778,13.500 26.000,13.500 C26.828,13.500 27.500,14.171 27.500,14.999 C27.500,15.607 27.139,16.129 26.621,16.365 L21.121,18.865 L21.121,18.865 C20.931,18.951 20.721,19.000 20.500,19.000 C19.672,19.000 19.000,18.328 19.000,17.500 C19.000,16.893 19.361,16.370 19.879,16.134 ZM19.879,21.634 L19.879,21.634 L25.379,19.134 L25.379,19.134 C25.568,19.048 25.778,19.000 26.000,19.000 C26.828,19.000 27.500,19.671 27.500,20.500 C27.500,21.107 27.139,21.629 26.621,21.865 L26.621,21.865 L21.121,24.365 L21.121,24.365 C20.931,24.452 20.721,24.500 20.500,24.500 C19.672,24.500 19.000,23.828 19.000,23.000 C19.000,22.393 19.361,21.870 19.879,21.634 ZM6.000,8.000 C6.221,8.000 6.431,8.048 6.621,8.134 L6.621,8.134 L12.121,10.634 L12.121,10.634 C12.639,10.870 13.000,11.393 13.000,12.000 C13.000,12.828 12.328,13.500 11.500,13.500 C11.278,13.500 11.068,13.452 10.879,13.365 L10.879,13.365 L5.379,10.865 L5.379,10.865 C4.861,10.629 4.500,10.107 4.500,9.500 C4.500,8.671 5.172,8.000 6.000,8.000 ZM6.000,13.500 C6.221,13.500 6.431,13.548 6.621,13.634 L6.621,13.634 L12.121,16.134 L12.121,16.134 C12.639,16.370 13.000,16.893 13.000,17.500 C13.000,18.328 12.328,19.000 11.500,19.000 C11.278,19.000 11.068,18.951 10.879,18.865 L10.879,18.865 L5.379,16.365 L5.379,16.365 C4.861,16.129 4.500,15.607 4.500,14.999 C4.500,14.171 5.172,13.500 6.000,13.500 ZM6.000,19.000 C6.221,19.000 6.431,19.048 6.621,19.134 L6.621,19.134 L12.121,21.634 L12.121,21.634 C12.639,21.870 13.000,22.393 13.000,23.000 C13.000,23.828 12.328,24.500 11.500,24.500 C11.278,24.500 11.068,24.452 10.879,24.365 L10.879,24.365 L5.379,21.865 L5.379,21.865 C4.861,21.629 4.500,21.107 4.500,20.500 C4.500,19.671 5.172,19.000 6.000,19.000 Z"/>
</symbol><symbol id="icon-cart">
<path fill-rule="evenodd" fill="rgb(255, 255, 255)" d="M17.726,3.663 L17.727,3.663 L15.252,9.163 L15.252,9.163 C15.130,9.434 14.866,9.627 14.555,9.648 L14.555,9.648 L7.427,10.123 L7.839,11.299 L15.600,11.299 C16.511,11.299 17.250,12.038 17.250,12.950 C17.250,13.861 16.511,14.600 15.600,14.600 C14.689,14.600 13.950,13.861 13.950,12.950 L6.250,12.950 C6.250,13.861 5.511,14.600 4.600,14.600 C3.689,14.600 2.950,13.861 2.950,12.950 C2.950,12.038 3.689,11.299 4.600,11.299 L6.091,11.299 L2.915,2.225 L1.025,2.225 C0.569,2.225 0.200,1.855 0.200,1.400 C0.200,0.944 0.569,0.575 1.025,0.575 L3.500,0.575 C3.860,0.575 4.163,0.807 4.276,1.128 L4.279,1.127 L4.759,2.500 L16.975,2.500 C17.431,2.500 17.800,2.869 17.800,3.325 C17.800,3.445 17.773,3.559 17.726,3.663 ZM5.337,4.150 L6.862,8.507 L13.951,8.034 L15.699,4.150 L5.337,4.150 Z"/>
</symbol><symbol id="icon-computer">
<path fill-rule="evenodd" fill="rgb(149, 225, 211)" d="M30.000,23.000 L22.500,23.000 L20.500,23.000 L20.500,25.499 L22.500,27.500 L22.500,28.000 L9.500,28.000 L9.500,27.500 L11.500,25.499 L11.500,23.000 L9.500,23.000 L2.000,23.000 C1.172,23.000 0.500,22.328 0.500,21.499 L0.500,1.500 C0.500,0.671 1.172,-0.000 2.000,-0.000 L30.000,-0.000 C30.828,-0.000 31.500,0.671 31.500,1.500 L31.500,21.499 C31.500,22.328 30.828,23.000 30.000,23.000 ZM29.500,2.000 L2.500,2.000 L2.500,19.000 L29.500,19.000 L29.500,2.000 ZM13.000,9.000 C13.414,9.000 13.789,9.168 14.061,9.439 L14.061,9.439 L15.000,10.378 L17.939,7.439 L17.939,7.439 C18.211,7.167 18.586,7.000 19.000,7.000 C19.828,7.000 20.500,7.671 20.500,8.500 C20.500,8.914 20.332,9.289 20.061,9.561 L20.061,9.561 L16.061,13.561 L16.061,13.561 C15.789,13.832 15.414,14.000 15.000,14.000 C14.586,14.000 14.211,13.832 13.939,13.561 L13.939,13.561 L11.939,11.560 L11.939,11.560 C11.668,11.289 11.500,10.914 11.500,10.500 C11.500,9.671 12.172,9.000 13.000,9.000 Z"/>
</symbol><symbol id="icon-facebook">
<path fill-rule="evenodd" fill="rgb(255, 255, 255)" d="M12.089,0.199 C12.089,1.675 12.089,4.320 12.089,4.320 C12.089,4.320 9.052,4.017 8.291,5.181 C7.875,5.817 8.122,7.681 8.085,9.019 C9.411,9.019 10.788,9.019 12.114,9.019 C11.774,10.583 11.530,11.643 11.279,12.997 C10.132,12.997 8.063,12.997 8.063,12.997 L8.063,25.801 C8.063,25.801 4.266,25.801 2.481,25.801 C2.482,21.854 2.480,17.249 2.481,13.047 C1.614,13.047 0.973,13.047 0.106,13.047 C0.106,11.571 0.106,10.496 0.106,9.019 C0.947,9.019 1.613,9.019 2.455,9.019 C2.575,6.073 2.620,3.155 4.084,1.669 C5.728,-0.002 7.297,0.199 12.089,0.199 Z"/>
</symbol><symbol id="icon-graph">
<path fill-rule="evenodd" fill="rgb(149, 225, 211)" d="M30.500,32.000 L1.500,32.000 C0.672,32.000 0.000,31.328 0.000,30.500 L0.000,1.499 C0.000,0.672 0.672,-0.000 1.500,-0.000 L30.500,-0.000 C31.328,-0.000 32.000,0.672 32.000,1.499 L32.000,30.500 C32.000,31.328 31.328,32.000 30.500,32.000 ZM29.000,3.000 L3.000,3.000 L3.000,29.000 L29.000,29.000 L29.000,3.000 ZM5.215,16.239 L5.215,16.237 L9.215,13.737 L9.215,13.739 C9.444,13.598 9.712,13.517 10.000,13.517 C10.311,13.517 10.600,13.612 10.840,13.774 L10.846,13.766 L17.477,18.186 L25.115,12.795 C25.363,12.613 25.669,12.505 26.000,12.505 C26.828,12.505 27.500,13.177 27.500,14.005 C27.500,14.505 27.255,14.948 26.878,15.221 L26.879,15.221 L18.379,21.221 L18.378,21.221 C18.132,21.400 17.828,21.505 17.500,21.505 C17.179,21.505 16.882,21.404 16.639,21.233 L9.982,16.795 L6.847,18.755 C6.606,18.920 6.314,19.017 6.000,19.017 C5.172,19.017 4.500,18.345 4.500,17.517 C4.500,16.976 4.786,16.503 5.215,16.239 Z"/>
</symbol><symbol id="icon-home">
<path fill-rule="evenodd" fill="rgb(149, 225, 211)" d="M32.000,16.500 C32.000,17.328 31.328,17.999 30.500,17.999 C30.105,17.999 29.748,17.844 29.480,17.594 L29.477,17.598 L16.038,4.159 L16.038,4.159 L16.000,4.122 L16.000,4.122 L2.554,17.568 L2.553,17.568 C2.282,17.835 1.910,17.999 1.500,17.999 C0.672,17.999 -0.000,17.328 -0.000,16.500 C-0.000,16.075 0.177,15.692 0.461,15.419 L14.919,0.960 C15.192,0.677 15.575,0.500 16.000,0.500 L16.000,0.500 L16.000,0.500 C16.000,0.500 16.000,0.500 16.001,0.500 C16.027,0.500 16.053,0.500 16.080,0.502 C16.084,0.502 16.088,0.503 16.092,0.503 C16.115,0.504 16.137,0.506 16.160,0.508 C16.161,0.508 16.162,0.508 16.164,0.509 C16.531,0.549 16.858,0.721 17.097,0.977 L17.098,0.976 L23.000,6.878 L23.000,5.500 C23.000,4.671 23.671,4.000 24.500,4.000 C25.328,4.000 26.000,4.671 26.000,5.500 L26.000,9.878 L31.598,15.476 L31.594,15.480 C31.844,15.748 32.000,16.105 32.000,16.500 ZM29.000,19.000 L29.000,23.500 L29.000,25.500 L29.000,29.500 C29.000,30.328 28.328,31.000 27.500,31.000 L24.500,31.000 L24.500,19.000 L18.500,19.000 L18.500,31.000 L4.500,31.000 C3.672,31.000 3.000,30.328 3.000,29.500 L3.000,25.500 L3.000,23.500 L3.000,19.000 L16.000,6.000 L29.000,19.000 ZM13.500,19.000 L7.500,19.000 L7.500,25.000 L13.500,25.000 L13.500,19.000 Z"/>
</symbol><symbol id="icon-image">
<path fill-rule="evenodd" fill="rgb(149, 225, 211)" d="M30.500,32.000 L1.500,32.000 C0.671,32.000 -0.000,31.328 -0.000,30.500 L-0.000,1.500 C-0.000,0.671 0.671,0.000 1.500,0.000 L30.500,0.000 C31.328,0.000 32.000,0.671 32.000,1.500 L32.000,30.500 C32.000,31.328 31.328,32.000 30.500,32.000 ZM29.000,3.000 L3.000,3.000 L3.000,29.000 L29.000,29.000 L29.000,3.000 ZM6.500,4.500 L12.000,4.500 L12.000,4.500 C12.828,4.500 13.500,5.171 13.500,6.000 C13.500,6.828 12.828,7.500 12.000,7.500 L12.000,7.500 L7.500,7.500 L7.500,12.000 L7.500,12.000 C7.500,12.828 6.828,13.500 6.000,13.500 C5.172,13.500 4.500,12.828 4.500,12.000 L4.500,12.000 L4.500,6.500 L4.500,6.500 L4.500,4.500 L6.500,4.500 L6.500,4.500 ZM4.500,20.000 L4.500,20.000 C4.500,19.171 5.172,18.499 6.000,18.499 C6.828,18.499 7.500,19.171 7.500,20.000 L7.500,20.000 L7.500,24.499 L12.000,24.499 L12.000,24.500 C12.828,24.500 13.500,25.171 13.500,26.000 C13.500,26.828 12.828,27.500 12.000,27.500 L12.000,27.500 L6.500,27.500 L6.500,27.500 L4.500,27.500 L4.500,25.500 L4.500,25.500 L4.500,20.000 ZM20.000,4.500 L20.000,4.500 L25.500,4.500 L25.500,4.500 L27.500,4.500 L27.500,6.500 L27.500,6.500 L27.500,12.000 L27.500,12.000 C27.500,12.828 26.828,13.500 26.000,13.500 C25.172,13.500 24.500,12.828 24.500,12.000 L24.500,12.000 L24.500,7.500 L20.000,7.500 L20.000,7.500 C19.172,7.500 18.500,6.828 18.500,6.000 C18.500,5.171 19.172,4.500 20.000,4.500 ZM20.000,24.500 L20.000,24.499 L24.500,24.499 L24.500,20.000 L24.500,20.000 C24.500,19.171 25.172,18.499 26.000,18.499 C26.828,18.499 27.500,19.171 27.500,20.000 L27.500,20.000 L27.500,25.500 L27.500,25.500 L27.500,27.500 L25.500,27.500 L25.500,27.500 L20.000,27.500 L20.000,27.500 C19.172,27.500 18.500,26.828 18.500,26.000 C18.500,25.171 19.172,24.500 20.000,24.500 Z"/>
</symbol><symbol id="icon-instagram">
<path fill-rule="evenodd" fill="rgb(243, 129, 129)" d="M22.700,25.800 L3.500,25.800 C1.733,25.800 0.300,24.367 0.300,22.599 L0.300,3.400 C0.300,1.632 1.733,0.199 3.500,0.199 L22.700,0.199 C24.467,0.199 25.900,1.632 25.900,3.400 L25.900,22.599 C25.900,24.367 24.467,25.800 22.700,25.800 ZM13.100,8.039 C11.104,8.039 9.389,9.221 8.602,10.919 L8.597,10.919 C8.589,10.937 8.583,10.956 8.575,10.974 C8.528,11.079 8.487,11.187 8.447,11.295 C8.428,11.348 8.407,11.399 8.390,11.451 C8.353,11.563 8.323,11.676 8.295,11.791 C8.281,11.844 8.265,11.897 8.253,11.951 C8.227,12.072 8.209,12.195 8.192,12.319 C8.185,12.369 8.175,12.418 8.169,12.469 C8.151,12.643 8.140,12.820 8.140,13.000 C8.140,15.739 10.361,17.959 13.100,17.959 C15.839,17.959 18.060,15.739 18.060,13.000 C18.060,12.820 18.049,12.643 18.031,12.469 C18.025,12.418 18.015,12.369 18.008,12.319 C17.991,12.195 17.973,12.072 17.947,11.951 C17.935,11.897 17.919,11.844 17.905,11.791 C17.877,11.676 17.847,11.563 17.810,11.451 C17.793,11.399 17.772,11.348 17.753,11.295 C17.713,11.187 17.672,11.079 17.625,10.974 C17.617,10.956 17.611,10.937 17.603,10.919 L17.598,10.919 C16.811,9.221 15.096,8.039 13.100,8.039 ZM23.020,4.359 C23.020,3.652 22.447,3.080 21.740,3.080 L19.180,3.080 C18.473,3.080 17.900,3.652 17.900,4.359 L17.900,6.920 C17.900,7.627 18.473,8.200 19.180,8.200 L21.740,8.200 C22.447,8.200 23.020,7.627 23.020,6.920 L23.020,4.359 ZM23.020,10.919 L20.660,10.919 C20.842,11.582 20.940,12.280 20.940,13.000 C20.940,17.330 17.430,20.839 13.100,20.839 C8.770,20.839 5.260,17.330 5.260,13.000 C5.260,12.280 5.358,11.582 5.540,10.919 L3.180,10.919 L3.180,21.639 C3.180,22.347 3.753,22.920 4.460,22.920 L21.740,22.920 C22.447,22.920 23.020,22.347 23.020,21.639 L23.020,10.919 Z"/>
</symbol><symbol id="icon-pinterest">
<path fill-rule="evenodd" fill="rgb(243, 129, 129)" d="M9.051,16.854 C8.842,17.687 8.631,18.560 8.413,19.414 C8.198,20.256 8.008,21.110 7.695,21.884 C7.176,23.165 6.517,24.403 5.652,25.405 C5.077,26.072 5.199,25.806 5.026,25.770 C4.894,25.742 4.883,25.613 4.857,25.425 C4.716,24.407 4.812,23.230 4.864,22.086 C4.924,20.782 5.198,19.698 5.453,18.615 C5.937,16.551 6.399,14.528 6.888,12.451 C6.920,12.313 7.008,12.085 6.978,12.006 C6.756,11.429 6.612,10.911 6.549,10.305 C6.476,9.610 6.532,8.961 6.688,8.362 C6.965,7.304 7.601,6.367 8.582,6.024 C9.206,5.808 9.897,5.906 10.317,6.156 C10.749,6.415 11.046,6.823 11.184,7.402 C11.332,8.017 11.223,8.753 11.104,9.293 C10.837,10.512 10.486,11.427 10.167,12.603 C10.009,13.186 9.830,13.785 9.978,14.415 C10.114,14.993 10.415,15.391 10.825,15.690 C11.251,16.000 11.755,16.169 12.450,16.145 C13.678,16.102 14.531,15.317 15.101,14.577 C16.014,13.392 16.566,11.793 16.776,9.891 C16.843,9.277 16.893,8.572 16.846,7.877 C16.758,6.593 16.357,5.560 15.719,4.760 C15.113,3.997 14.253,3.391 13.207,3.049 C12.170,2.711 10.735,2.598 9.460,2.816 C7.142,3.213 5.508,4.530 4.545,6.349 C4.041,7.301 3.708,8.396 3.708,9.759 C3.708,10.810 3.967,11.624 4.386,12.259 C4.519,12.460 4.714,12.626 4.844,12.856 C5.029,13.182 4.816,13.667 4.725,14.020 C4.615,14.445 4.603,15.032 4.107,15.042 C3.901,15.046 3.643,14.896 3.469,14.799 C2.164,14.078 1.372,12.766 1.047,11.065 C0.849,10.031 0.850,8.826 1.047,7.827 C1.237,6.860 1.591,5.969 1.984,5.246 C2.798,3.743 3.991,2.541 5.443,1.683 C6.559,1.023 7.818,0.560 9.350,0.337 C9.858,0.263 10.384,0.232 10.955,0.205 C12.623,0.127 14.139,0.505 15.281,1.015 C16.486,1.554 17.448,2.271 18.261,3.161 C19.099,4.076 19.709,5.140 20.095,6.470 C20.297,7.162 20.493,7.902 20.493,8.757 C20.493,9.615 20.312,10.370 20.185,11.125 C19.711,13.953 18.366,16.266 16.347,17.583 C15.858,17.901 15.266,18.196 14.593,18.392 C13.926,18.586 13.165,18.732 12.350,18.675 C11.559,18.621 10.911,18.406 10.367,18.098 C9.827,17.793 9.373,17.419 9.051,16.854 Z"/>
</symbol><symbol id="icon-search">
<path fill-rule="evenodd" fill="rgb(255, 255, 255)" d="M17.317,14.983 C17.615,15.281 17.800,15.694 17.800,16.150 C17.800,17.061 17.061,17.800 16.150,17.800 C15.694,17.800 15.282,17.615 14.983,17.316 L14.983,17.316 L10.147,12.481 C9.165,13.061 8.023,13.400 6.800,13.400 C3.155,13.400 0.200,10.445 0.200,6.800 C0.200,3.155 3.155,0.200 6.800,0.200 C10.445,0.200 13.400,3.155 13.400,6.800 C13.400,8.023 13.061,9.165 12.481,10.147 L17.317,14.983 L17.317,14.983 ZM6.800,1.849 C4.066,1.849 1.850,4.066 1.850,6.800 C1.850,9.534 4.066,11.750 6.800,11.750 C9.534,11.750 11.750,9.534 11.750,6.800 C11.750,4.066 9.534,1.849 6.800,1.849 Z"/>
</symbol><symbol id="icon-twitter">
<path fill-rule="evenodd" fill="rgb(243, 129, 129)" d="M17.513,0.601 C19.547,0.565 20.630,1.306 21.664,2.248 C22.542,2.173 23.683,1.683 24.355,1.341 C24.572,1.223 24.790,1.103 25.008,0.984 C24.624,2.021 24.104,2.833 23.304,3.450 C23.126,3.586 22.950,3.771 22.727,3.858 C22.727,3.862 22.727,3.867 22.727,3.871 C23.867,3.860 24.807,3.345 25.700,3.066 C25.700,3.070 25.700,3.075 25.700,3.079 C25.231,3.824 24.596,4.581 23.919,5.123 C23.646,5.340 23.372,5.557 23.099,5.774 C23.114,6.981 23.081,8.133 22.856,9.147 C21.544,15.042 18.068,19.044 12.567,20.759 C10.591,21.374 7.399,21.627 5.135,21.065 C4.013,20.787 2.999,20.472 2.048,20.056 C1.519,19.825 1.029,19.575 0.561,19.289 C0.407,19.196 0.254,19.102 0.100,19.009 C0.610,19.024 1.208,19.165 1.778,19.072 C2.295,18.989 2.801,19.011 3.278,18.907 C4.466,18.646 5.521,18.301 6.429,17.769 C6.870,17.511 7.539,17.209 7.852,16.837 C7.262,16.847 6.727,16.710 6.289,16.556 C4.590,15.956 3.601,14.853 2.957,13.196 C3.472,13.253 4.955,13.387 5.302,13.094 C4.654,13.058 4.031,12.683 3.585,12.404 C2.218,11.549 1.104,10.115 1.112,7.908 C1.292,7.993 1.471,8.078 1.650,8.163 C1.994,8.308 2.343,8.385 2.752,8.470 C2.925,8.506 3.271,8.607 3.470,8.533 C3.461,8.533 3.453,8.533 3.444,8.533 C3.180,8.226 2.749,8.021 2.483,7.690 C1.606,6.601 0.785,4.924 1.304,2.926 C1.436,2.419 1.645,1.972 1.868,1.559 C1.877,1.563 1.885,1.567 1.894,1.571 C1.996,1.785 2.224,1.942 2.368,2.121 C2.816,2.676 3.368,3.175 3.931,3.615 C5.849,5.115 7.576,6.037 10.350,6.719 C11.054,6.893 11.867,7.025 12.708,7.026 C12.472,6.339 12.548,5.226 12.733,4.561 C13.201,2.887 14.216,1.682 15.706,1.035 C16.062,0.881 16.457,0.768 16.872,0.677 C17.086,0.652 17.299,0.626 17.513,0.601 Z"/>
</symbol><symbol id="svg-sprite">

</symbol></svg>